<?xml version="1.0" encoding="UTF-8"?>
<!DOCTYPE svg PUBLIC "-//W3C//DTD SVG 1.1//EN" "http://www.w3.org/Graphics/SVG/1.1/DTD/svg11.dtd">
<svg xmlns="http://www.w3.org/2000/svg" version="1.1" width="1024px" height="1024px" style="shape-rendering:geometricPrecision; text-rendering:geometricPrecision; image-rendering:optimizeQuality; fill-rule:evenodd; clip-rule:evenodd" xmlns:xlink="http://www.w3.org/1999/xlink">
<g><path style="opacity:0.986" fill="#000000" d="M 511.5,9.5 C 537.024,9.50864 560.024,17.0086 580.5,32C 589.389,38.2865 597.722,45.2865 605.5,53C 684.167,53.3333 762.833,53.6667 841.5,54C 910.467,65.3006 953.634,104.801 971,172.5C 971.76,176.819 972.427,181.152 973,185.5C 973.333,264.167 973.667,342.833 974,421.5C 1016.53,461.934 1025.86,508.934 1002,562.5C 993.881,575.73 984.548,588.064 974,599.5C 973.667,678.167 973.333,756.833 973,835.5C 961.699,904.467 922.199,947.634 854.5,965C 850.181,965.76 845.848,966.427 841.5,967C 762.5,967.333 683.5,967.667 604.5,968C 590.072,983.383 573.072,995.05 553.5,1003C 516.135,1014.77 481.469,1009.44 449.5,987C 441.649,980.905 433.982,974.572 426.5,968C 350.167,967.667 273.833,967.333 197.5,967C 128.533,955.699 85.3659,916.199 68,848.5C 67.2401,844.181 66.5735,839.848 66,835.5C 65.6667,758.5 65.3333,681.5 65,604.5C 16.3724,563.374 4.37235,513.374 29,454.5C 39.1182,438.704 51.1182,424.371 65,411.5C 65.3333,336.167 65.6667,260.833 66,185.5C 74.3593,129.243 104.193,89.0762 155.5,65C 169.005,59.457 183.005,55.7904 197.5,54C 272.833,53.6667 348.167,53.3333 423.5,53C 437.538,38.6267 453.538,26.9601 471.5,18C 484.497,12.9123 497.83,10.0789 511.5,9.5 Z"/></g>
<g><path style="opacity:1" fill="#fefefe" d="M 593.5,78.5 C 711.5,197.167 829.833,315.5 948.5,433.5C 959.227,443.397 968.727,454.397 977,466.5C 992.28,495.134 992.28,523.801 977,552.5C 969.14,565.194 959.64,576.528 948.5,586.5C 829.5,704.833 710.833,823.5 592.5,942.5C 582.483,954.516 570.817,964.683 557.5,973C 531.469,986.215 505.136,986.881 478.5,975C 463.239,966.575 449.905,955.742 438.5,942.5C 322.833,826.167 206.833,710.167 90.5,594.5C 81.5356,585.035 72.3689,575.702 63,566.5C 42.9562,541.267 36.9562,512.934 45,481.5C 49.2054,470.084 55.2054,459.751 63,450.5C 72.4235,441.245 81.5902,431.911 90.5,422.5C 205.5,308.167 320.167,193.5 434.5,78.5C 445.773,66.0626 458.439,55.2292 472.5,46C 501.501,31.4925 530.168,32.1591 558.5,48C 571.776,56.307 583.443,66.4736 593.5,78.5 Z"/></g>
<g><path style="opacity:1" fill="#025aa2" d="M 434.5,78.5 C 320.167,193.5 205.5,308.167 90.5,422.5C 90.3333,344.499 90.5,266.499 91,188.5C 99.9545,135.551 129.788,100.384 180.5,83C 187.065,81.1537 193.731,79.8204 200.5,79C 278.499,78.5 356.499,78.3333 434.5,78.5 Z"/></g>
<g><path style="opacity:1" fill="#035ba3" d="M 593.5,78.5 C 673.834,78.3333 754.167,78.5 834.5,79C 889.62,86.1257 926.12,115.959 944,168.5C 945.846,175.065 947.18,181.731 948,188.5C 948.5,270.166 948.667,351.833 948.5,433.5C 829.833,315.5 711.5,197.167 593.5,78.5 Z"/></g>
<g><path style="opacity:1" fill="#000000" d="M 534.5,332.5 C 522.833,339.167 511.167,339.167 499.5,332.5C 483.675,319.857 480.508,304.524 490,286.5C 502.879,271.489 518.045,268.656 535.5,278C 550.511,290.879 553.344,306.045 544,323.5C 540.964,326.704 537.797,329.704 534.5,332.5 Z"/></g>
<g><path style="opacity:1" fill="#025aa3" d="M 499.5,332.5 C 511.167,339.167 522.833,339.167 534.5,332.5C 534.333,405.167 534.5,477.834 535,550.5C 555.7,528.302 576.533,506.302 597.5,484.5C 602.183,496.515 610.85,503.848 623.5,506.5C 599.56,533.442 574.894,559.776 549.5,585.5C 543.196,564.508 529.196,556.008 507.5,560C 495.741,564.256 488.408,572.422 485.5,584.5C 458.5,558.167 431.833,531.5 405.5,504.5C 417.833,500.833 425.833,492.833 429.5,480.5C 452.799,503.298 475.965,526.298 499,549.5C 499.5,477.167 499.667,404.834 499.5,332.5 Z"/></g>
<g><path style="opacity:1" fill="#000000" d="M 429.5,480.5 C 425.833,492.833 417.833,500.833 405.5,504.5C 386.81,507.405 373.977,500.072 367,482.5C 363.127,458.037 373.46,444.037 398,440.5C 415.068,441.901 425.735,450.901 430,467.5C 430.706,471.887 430.54,476.22 429.5,480.5 Z"/></g>
<g><path style="opacity:1" fill="#000000" d="M 623.5,506.5 C 610.85,503.848 602.183,496.515 597.5,484.5C 592.649,464.703 599.649,450.869 618.5,443C 642.963,439.127 656.963,449.46 660.5,474C 659.099,491.068 650.099,501.735 633.5,506C 630.183,506.498 626.85,506.665 623.5,506.5 Z"/></g>
<g><path style="opacity:1" fill="#000000" d="M 549.5,585.5 C 549.949,607.881 539.116,620.547 517,623.5C 499.932,622.099 489.265,613.099 485,596.5C 484.238,592.413 484.404,588.413 485.5,584.5C 488.408,572.422 495.741,564.256 507.5,560C 529.196,556.008 543.196,564.508 549.5,585.5 Z"/></g>
<g><path style="opacity:1" fill="#000000" d="M 336.5,641.5 C 324.674,647.031 313.008,646.698 301.5,640.5C 286.568,627.432 283.734,612.099 293,594.5C 305.879,579.489 321.045,576.656 338.5,586C 353.511,598.879 356.344,614.045 347,631.5C 343.604,635.065 340.104,638.398 336.5,641.5 Z"/></g>
<g><path style="opacity:1" fill="#000000" d="M 728.5,641.5 C 716.674,647.031 705.008,646.698 693.5,640.5C 678.568,627.432 675.734,612.099 685,594.5C 697.879,579.489 713.045,576.656 730.5,586C 745.511,598.879 748.344,614.045 739,631.5C 735.604,635.065 732.104,638.398 728.5,641.5 Z"/></g>
<g><path style="opacity:1" fill="#045ba3" d="M 948.5,586.5 C 948.667,667.167 948.5,747.834 948,828.5C 941.995,878.817 915.829,913.984 869.5,934C 860.693,937.118 851.693,939.452 842.5,941C 759.187,942.472 675.853,942.972 592.5,942.5C 710.833,823.5 829.5,704.833 948.5,586.5 Z"/></g>
<g><path style="opacity:1" fill="#025ba2" d="M 90.5,594.5 C 206.833,710.167 322.833,826.167 438.5,942.5C 359.166,942.667 279.833,942.5 200.5,942C 140.319,931.485 104.152,896.318 92,836.5C 90.5229,755.857 90.0229,675.191 90.5,594.5 Z"/></g>
<g><path style="opacity:1" fill="#025aa3" d="M 301.5,640.5 C 313.008,646.698 324.674,647.031 336.5,641.5C 336.5,652.5 336.5,663.5 336.5,674.5C 324.502,668.772 312.835,669.438 301.5,676.5C 301.5,664.5 301.5,652.5 301.5,640.5 Z"/></g>
<g><path style="opacity:1" fill="#025aa3" d="M 693.5,640.5 C 705.008,646.698 716.674,647.031 728.5,641.5C 728.5,652.5 728.5,663.5 728.5,674.5C 716.674,668.969 705.008,669.302 693.5,675.5C 693.5,663.833 693.5,652.167 693.5,640.5 Z"/></g>
<g><path style="opacity:1" fill="#000000" d="M 336.5,674.5 C 340.792,677.457 344.792,680.79 348.5,684.5C 354.698,696.008 355.031,707.674 349.5,719.5C 336.84,736.08 321.174,739.58 302.5,730C 287.489,717.121 284.656,701.955 294,684.5C 296.705,681.964 299.205,679.297 301.5,676.5C 312.835,669.438 324.502,668.772 336.5,674.5 Z"/></g>
<g><path style="opacity:1" fill="#000000" d="M 728.5,674.5 C 745.08,687.16 748.58,702.826 739,721.5C 726.121,736.511 710.955,739.344 693.5,730C 689.935,726.604 686.602,723.104 683.5,719.5C 677.969,707.674 678.302,696.008 684.5,684.5C 687.833,681.833 690.833,678.833 693.5,675.5C 705.008,669.302 716.674,668.969 728.5,674.5 Z"/></g>
<g><path style="opacity:1" fill="#025aa3" d="M 348.5,684.5 C 460.5,684.5 572.5,684.5 684.5,684.5C 678.302,696.008 677.969,707.674 683.5,719.5C 572.167,719.5 460.833,719.5 349.5,719.5C 355.031,707.674 354.698,696.008 348.5,684.5 Z"/></g>
</svg>
